<?xml version="1.0" encoding="UTF-8" standalone="no"?>
<!-- Created with Inkscape (http://www.inkscape.org/) -->

<svg
   xmlns:dc="http://purl.org/dc/elements/1.1/"
   xmlns:cc="http://creativecommons.org/ns#"
   xmlns:rdf="http://www.w3.org/1999/02/22-rdf-syntax-ns#"
   xmlns:svg="http://www.w3.org/2000/svg"
   xmlns="http://www.w3.org/2000/svg"
   xmlns:sodipodi="http://sodipodi.sourceforge.net/DTD/sodipodi-0.dtd"
   xmlns:inkscape="http://www.inkscape.org/namespaces/inkscape"
   version="1.1"
   id="svg5036"
   xml:space="preserve"
   width="472.44"
   height="472.44"
   viewBox="0 0 472.44 472.44"
   sodipodi:docname="habito-icon-black-trans.svg"
   inkscape:version="0.92+devel unknown"><metadata
     id="metadata5042"><rdf:RDF><cc:Work
         rdf:about=""><dc:format>image/svg+xml</dc:format><dc:type
           rdf:resource="http://purl.org/dc/dcmitype/StillImage" /><dc:title></dc:title></cc:Work></rdf:RDF></metadata><defs
     id="defs5040" /><sodipodi:namedview
     pagecolor="#ffffff"
     bordercolor="#666666"
     inkscape:document-rotation="0"
     borderopacity="1"
     objecttolerance="10"
     gridtolerance="10"
     guidetolerance="10"
     inkscape:pageopacity="0"
     inkscape:pageshadow="2"
     inkscape:window-width="2558"
     inkscape:window-height="1579"
     id="namedview5038"
     showgrid="false"
     inkscape:zoom="2.0087207"
     inkscape:cx="139.3922"
     inkscape:cy="236.22"
     inkscape:window-x="0"
     inkscape:window-y="19"
     inkscape:window-maximized="0"
     inkscape:current-layer="g5044" /><g
     id="g5044"
     inkscape:groupmode="layer"
     inkscape:label="ink_ext_XXXXXX"
     transform="matrix(1.3333333,0,0,-1.3333333,0,472.44)"><g
       id="g5046"
       transform="scale(0.1)"><path
         d="m 2366.35,702.172 v 105.34 c -12.19,12.187 -19.02,19.019 -31.21,31.207 H 1238.96 c -12.19,-12.188 -19.02,-19.02 -31.21,-31.207 v -105.34 c 12.19,-12.184 19.02,-19.024 31.21,-31.203 h 1096.18 c 12.19,12.179 19.02,19.019 31.21,31.203 z M 2484.89,2837.35 V 1213.24 l -39.03,-39 h -304.57 l -39.01,39.01 v 628.85 l -39.01,39.01 H 1510.7 l -39.02,-39.01 v -628.85 l -39,-39.01 h -304.59 l -39.01,39.01 v 1624.09 l 39.01,39.01 h 304.59 l 39,-39.01 v -581.73 l 39.02,-39.01 h 552.57 l 39.01,39.01 v 581.73 l 39.01,39.01 h 304.57 l 39.03,-39"
         style="fill:#303030;fill-opacity:1;fill-rule:nonzero;stroke:none"
         id="path5050"
         inkscape:connector-curvature="0" /></g></g></svg>